<svg width="164" height="48" viewBox="0 0 164 48" fill="none" xmlns="http://www.w3.org/2000/svg">
<path d="M6 44L9 41L12 44L15 41L18 44L21 41L24 44L27 41L30 44L33 41L36 44L39 41L42 44V4L39 7L36 4L33 7L30 4L27 7L24 4L21 7L18 4L15 7L12 4L9 7L6 4M36 18H12V14H36M36 26H12V22H36M36 34H12V30H36V34Z" fill="#00809D"/>
<path d="M61.514 22.554C60.734 22.554 60.1447 22.762 59.746 23.178C59.3473 23.5767 59.096 24.27 58.992 25.258C58.992 25.3967 59.0527 25.466 59.174 25.466H63.568C63.724 25.466 63.802 25.388 63.802 25.232C63.7327 23.4467 62.97 22.554 61.514 22.554ZM62.164 33.76C59.8067 33.76 57.9867 33.162 56.704 31.966C55.4387 30.77 54.806 29.028 54.806 26.74C54.806 24.4693 55.3693 22.736 56.496 21.54C57.64 20.3267 59.2867 19.72 61.436 19.72C65.5613 19.72 67.6587 21.9733 67.728 26.48C67.728 26.896 67.5633 27.2513 67.234 27.546C66.922 27.8233 66.558 27.962 66.142 27.962H59.2C59.0267 27.962 58.9573 28.04 58.992 28.196C59.1307 29.1493 59.4947 29.834 60.084 30.25C60.6907 30.6487 61.592 30.848 62.788 30.848C63.568 30.848 64.4087 30.7353 65.31 30.51C65.674 30.4233 65.9947 30.4927 66.272 30.718C66.5667 30.9433 66.714 31.238 66.714 31.602V31.654C66.714 32.0873 66.5753 32.486 66.298 32.85C66.038 33.1967 65.7 33.4047 65.284 33.474C64.2787 33.6647 63.2387 33.76 62.164 33.76ZM76.7618 27.312C74.6471 27.312 73.5898 27.962 73.5898 29.262C73.5898 29.73 73.7284 30.1027 74.0058 30.38C74.2831 30.64 74.6558 30.77 75.1238 30.77C75.9558 30.77 76.6318 30.51 77.1518 29.99C77.6718 29.4527 77.9318 28.742 77.9318 27.858V27.546C77.9318 27.39 77.8538 27.312 77.6978 27.312H76.7618ZM73.8498 33.76C72.6538 33.76 71.6658 33.3787 70.8858 32.616C70.1231 31.836 69.7418 30.8307 69.7418 29.6C69.7418 26.4453 72.0818 24.868 76.7618 24.868H77.6978C77.8538 24.868 77.9318 24.7987 77.9318 24.66V24.53C77.9318 23.8713 77.7584 23.3947 77.4118 23.1C77.0824 22.8053 76.5191 22.658 75.7218 22.658C74.6644 22.658 73.3991 22.8227 71.9258 23.152C71.5618 23.2213 71.2324 23.1433 70.9378 22.918C70.6604 22.6927 70.5218 22.398 70.5218 22.034V21.982C70.5218 21.5487 70.6518 21.1587 70.9118 20.812C71.1891 20.448 71.5358 20.2313 71.9518 20.162C73.4771 19.8673 74.7944 19.72 75.9038 19.72C78.1744 19.72 79.7778 20.1273 80.7138 20.942C81.6671 21.7567 82.1438 23.1087 82.1438 24.998V32.018C82.1438 32.4167 81.9964 32.7633 81.7018 33.058C81.4071 33.3527 81.0604 33.5 80.6618 33.5H79.6998C79.2838 33.5 78.9284 33.3613 78.6338 33.084C78.3391 32.7893 78.1831 32.434 78.1658 32.018V31.732C78.1658 31.7147 78.1571 31.706 78.1398 31.706C78.1051 31.706 78.0878 31.7147 78.0878 31.732C76.9958 33.084 75.5831 33.76 73.8498 33.76ZM90.0305 28.3C88.1585 27.9533 86.8152 27.416 86.0005 26.688C85.2032 25.96 84.8045 24.998 84.8045 23.802C84.8045 22.5193 85.2812 21.5227 86.2345 20.812C87.2052 20.084 88.6612 19.72 90.6025 19.72C91.7465 19.72 92.9165 19.8153 94.1125 20.006C94.5285 20.0753 94.8665 20.2747 95.1265 20.604C95.4038 20.9333 95.5425 21.3147 95.5425 21.748V21.878C95.5425 22.242 95.3952 22.5367 95.1005 22.762C94.8232 22.9873 94.5025 23.0653 94.1385 22.996C93.0118 22.7707 91.9718 22.658 91.0185 22.658C90.3078 22.658 89.8052 22.7447 89.5105 22.918C89.2332 23.0913 89.0945 23.3513 89.0945 23.698C89.0945 24.3567 89.6145 24.79 90.6545 24.998C92.6305 25.3273 94.0085 25.8473 94.7885 26.558C95.5858 27.2687 95.9845 28.3 95.9845 29.652C95.9845 30.952 95.4992 31.966 94.5285 32.694C93.5578 33.4047 92.1452 33.76 90.2905 33.76C88.9385 33.76 87.6558 33.63 86.4425 33.37C86.0265 33.2833 85.6798 33.0667 85.4025 32.72C85.1425 32.356 85.0125 31.9487 85.0125 31.498V31.29C85.0125 30.926 85.1598 30.6487 85.4545 30.458C85.7492 30.25 86.0785 30.1893 86.4425 30.276C87.5692 30.5707 88.6785 30.718 89.7705 30.718C91.0532 30.718 91.6945 30.3453 91.6945 29.6C91.6945 29.2533 91.5732 28.9847 91.3305 28.794C91.1052 28.6033 90.6718 28.4387 90.0305 28.3ZM104.83 22.554C104.05 22.554 103.461 22.762 103.062 23.178C102.664 23.5767 102.412 24.27 102.308 25.258C102.308 25.3967 102.369 25.466 102.49 25.466H106.884C107.04 25.466 107.118 25.388 107.118 25.232C107.049 23.4467 106.286 22.554 104.83 22.554ZM105.48 33.76C103.123 33.76 101.303 33.162 100.02 31.966C98.7551 30.77 98.1224 29.028 98.1224 26.74C98.1224 24.4693 98.6857 22.736 99.8124 21.54C100.956 20.3267 102.603 19.72 104.752 19.72C108.878 19.72 110.975 21.9733 111.044 26.48C111.044 26.896 110.88 27.2513 110.55 27.546C110.238 27.8233 109.874 27.962 109.458 27.962H102.516C102.343 27.962 102.274 28.04 102.308 28.196C102.447 29.1493 102.811 29.834 103.4 30.25C104.007 30.6487 104.908 30.848 106.104 30.848C106.884 30.848 107.725 30.7353 108.626 30.51C108.99 30.4233 109.311 30.4927 109.588 30.718C109.883 30.9433 110.03 31.238 110.03 31.602V31.654C110.03 32.0873 109.892 32.486 109.614 32.85C109.354 33.1967 109.016 33.4047 108.6 33.474C107.595 33.6647 106.555 33.76 105.48 33.76ZM118.31 18.004V23.672C118.31 23.7933 118.388 23.8713 118.544 23.906C119.134 23.9753 119.602 24.01 119.948 24.01C121.196 24.01 122.158 23.724 122.834 23.152C123.528 22.5627 123.874 21.748 123.874 20.708C123.874 18.6453 122.566 17.614 119.948 17.614C119.515 17.614 119.038 17.6573 118.518 17.744C118.38 17.7787 118.31 17.8653 118.31 18.004ZM115.45 33.5C115.052 33.5 114.705 33.3527 114.41 33.058C114.116 32.7633 113.968 32.4167 113.968 32.018V16.132C113.968 15.716 114.107 15.3433 114.384 15.014C114.662 14.6847 115.008 14.5027 115.424 14.468C116.898 14.3293 118.319 14.26 119.688 14.26C125.235 14.26 128.008 16.3227 128.008 20.448C128.008 22.684 127.358 24.3827 126.058 25.544C124.776 26.688 122.886 27.26 120.39 27.26C119.732 27.26 119.116 27.234 118.544 27.182C118.388 27.182 118.31 27.2513 118.31 27.39V32.018C118.31 32.4167 118.163 32.7633 117.868 33.058C117.574 33.3527 117.227 33.5 116.828 33.5H115.45ZM142.74 24.01C142.74 19.9367 141.284 17.9 138.372 17.9C135.46 17.9 134.004 19.9367 134.004 24.01C134.004 28.0833 135.46 30.12 138.372 30.12C141.284 30.12 142.74 28.0833 142.74 24.01ZM144.872 31.186C143.277 32.902 141.11 33.76 138.372 33.76C135.633 33.76 133.466 32.902 131.872 31.186C130.277 29.4527 129.48 27.0607 129.48 24.01C129.48 20.9593 130.277 18.576 131.872 16.86C133.466 15.1267 135.633 14.26 138.372 14.26C141.11 14.26 143.277 15.1267 144.872 16.86C146.466 18.576 147.264 20.9593 147.264 24.01C147.264 27.0607 146.466 29.4527 144.872 31.186ZM155.332 25.908C153.148 25.2147 151.571 24.3567 150.6 23.334C149.63 22.294 149.144 21.0287 149.144 19.538C149.144 17.9087 149.708 16.626 150.834 15.69C151.978 14.7367 153.608 14.26 155.722 14.26C157.317 14.26 158.764 14.442 160.064 14.806C160.48 14.9273 160.81 15.1787 161.052 15.56C161.312 15.924 161.442 16.3313 161.442 16.782V17.536C161.442 17.8827 161.295 18.1513 161 18.342C160.706 18.5327 160.394 18.5673 160.064 18.446C158.591 17.926 157.23 17.666 155.982 17.666C154.388 17.666 153.59 18.29 153.59 19.538C153.59 20.5953 154.284 21.3493 155.67 21.8C158.062 22.528 159.718 23.3773 160.636 24.348C161.572 25.3187 162.04 26.5927 162.04 28.17C162.04 31.8967 159.692 33.76 154.994 33.76C153.504 33.76 152.152 33.526 150.938 33.058C150.522 32.902 150.193 32.6333 149.95 32.252C149.725 31.8533 149.612 31.42 149.612 30.952V30.12C149.612 29.808 149.751 29.574 150.028 29.418C150.306 29.2447 150.583 29.2273 150.86 29.366C152.126 29.99 153.417 30.302 154.734 30.302C155.653 30.302 156.346 30.1287 156.814 29.782C157.3 29.418 157.542 28.9067 157.542 28.248C157.542 27.676 157.378 27.208 157.048 26.844C156.719 26.48 156.147 26.168 155.332 25.908Z" fill="#00809D"/>
</svg>
